# xmcd
#
# Track frame offsets:
#	182
#	12535
#	24035
#	33817
#	44727
#	56105
#	67942
#	81202
#	91747
#	103772
#	116462
#	126827
#	141390
#	151410
#
# Disc length: 2171
#
# Revision: 1
# Processed by: cddbd v1.5.1PL0 Copyright (c) Steve Scherf et al.
# Submitted via: VisiTrax 2.9.5.180 - For more info visit www.synapsa.com
# Normalized: r0:DSETVAR1
#
DISCID=b408790e
DTITLE=Various Artist - Classic Country volume seven
DYEAR=1989
DGENRE=
TTITLE0=Chet Atkins- Dolly Parton - Do I ever cross your mind
TTITLE1=Bobby Bare - Skeeter Davis - Invisible tears
TTITLE2=Skeeter Davis - Am I that easy to forget
TTITLE3=Don Gibson - Lonesome number one
TTITLE4=Hank Locklin - Send me the pillow (that you dream on)
TTITLE5=Willie Nelson - One in a row
TTITLE6=Connie Smith - The hurtin's all over
TTITLE7=Porter wagoner - Doll Parton - Just the two of us
TTITLE8=Jessi Colter - Healing hands of time
TTITLE9=Skeeter Davis - our cheating heart
TTITLE10=Kitty Wells - Make up your mind
TTITLE11=Dave and Sugar - Don't throw it all away
TTITLE12=Bobby Bare - Skeeter davis - Together agian
TTITLE13=Sonny James - Young love
EXTD=
EXTT0=
EXTT1=
EXTT2=
EXTT3=
EXTT4=
EXTT5=
EXTT6=
EXTT7=
EXTT8=
EXTT9=
EXTT10=
EXTT11=
EXTT12=
EXTT13=
PLAYORDER=
